<svg id="Layer_1" data-name="Layer 1" xmlns="http://www.w3.org/2000/svg" viewBox="0 0 936.12 278.93"><defs><style>.cls-1{fill:#fff;}</style></defs><path class="cls-1" d="M112.6,139.32A48.05,48.05,0,0,1,119,115.26L159.79,0H80.43L0,139.32,80.43,278.63h13l33.72-58.41,20-34.63A48.27,48.27,0,0,1,112.6,139.32ZM241.29,0H170L135.21,98.44a48.26,48.26,0,1,1,39.38,87.15l20,34.63,33.72,58.41h13l80.43-139.31Z"/><path class="cls-1" d="M459.12,58.07c0,32.88-23.74,58.22-56.94,58.22-33.37,0-57.11-25.34-57.11-58.22S368.81,0,402.18,0C435.38,0,459.12,25.18,459.12,58.07Zm-16.2,0c0-21.82-14.6-43.15-40.74-43.15s-40.75,21.33-40.75,43.15,14.6,43.15,40.75,43.15S442.92,79.88,442.92,58.07Z"/><path class="cls-1" d="M561.45,73.63c0,21.33-15.08,42.66-40.42,42.66-14.12,0-23.58-5.77-29.68-13.47v42.35h-14.6V32.88h14.6V44.27C497.45,36.73,506.91,31,521,31,546.37,31,561.45,52.29,561.45,73.63Zm-14.92,0c0-16.37-10.27-28.88-26.95-28.88-18,0-28.23,12.84-28.23,28.88s10.27,28.71,28.23,28.71C536.26,102.34,546.53,90,546.53,73.63Z"/><path class="cls-1" d="M652.87,79.88H588.23c2.24,13.31,12.19,22.46,28.07,22.46,8.82,0,16.84-3.37,21.33-9.15l12,7.7c-7.22,9.79-19.09,15.4-33.36,15.4-26.95,0-43.63-19.25-43.63-42.66S590,31,613.89,31C636,31,656.72,49.56,652.87,79.88ZM638.11,67.37c-1.92-13.79-10.42-22.62-24.22-22.62s-23.42,9.15-25.66,22.62Z"/><path class="cls-1" d="M740.29,63.36v50.85h-14.6V67.53c0-11.39-4.81-22.78-20.05-22.78-15.4,0-21.66,13.32-21.66,22.78v46.68H669.39V32.88H684V44.27C688.8,37.05,696.82,31,709.17,31,727.45,31,740.29,46.2,740.29,63.36Z"/><path class="cls-1" d="M390,193.59v16.53c-24.06-2.89-27.1,15.39-27.1,30.31v36.41h-14.6V195.52h14.6v14.11C368.33,198.73,379.56,193.59,390,193.59Z"/><path class="cls-1" d="M483.34,236.26c0,23.42-18.13,42.67-42.67,42.67S398,259.68,398,236.26s18.13-42.67,42.67-42.67S483.34,212.84,483.34,236.26Zm-14.92,0c0-16.68-11.71-28.87-27.75-28.87s-27.59,12.19-27.59,28.87c0,16.52,11.55,28.71,27.59,28.71S468.42,252.78,468.42,236.26Z"/><path class="cls-1" d="M584.06,236.26c0,21.34-15.24,42.67-40.58,42.67-14.12,0-23.42-5.78-29.51-13.48v11.39h-14.6V164.56H514v42.35c6.09-7.54,15.39-13.32,29.51-13.32C568.82,193.59,584.06,214.93,584.06,236.26Zm-15.08,0c0-16.36-10.1-28.87-26.94-28.87-17.81,0-28.07,12.83-28.07,28.87S524.23,265,542,265C558.88,265,569,252.62,569,236.26Z"/><path class="cls-1" d="M680.62,236.26c0,23.42-18.13,42.67-42.67,42.67s-42.67-19.25-42.67-42.67,18.13-42.67,42.67-42.67S680.62,212.84,680.62,236.26Zm-14.92,0c0-16.68-11.71-28.87-27.75-28.87s-27.59,12.19-27.59,28.87c0,16.52,11.55,28.71,27.59,28.71S665.7,252.78,665.7,236.26Z"/><path class="cls-1" d="M716.7,209.47v35.61c0,11.55.16,19.25,12.83,19.25,2.41,0,4.17-.16,5.94-.32v12.83a35,35,0,0,1-7.86.8c-17.64,0-25.5-9.46-25.5-27.26V209.47H689.43V195.52h12.68v-17H716.7v17h18.77v13.95Z"/><path class="cls-1" d="M753,172.74a8.34,8.34,0,0,1,16.68,0,8.34,8.34,0,0,1-16.68,0Zm1,22.78h14.76v81.32H753.91Z"/><path class="cls-1" d="M851,252l12.51,6.74a41.65,41.65,0,0,1-36.09,20.21c-24.54,0-42.67-19.25-42.67-42.67s18.13-42.67,42.67-42.67a41.86,41.86,0,0,1,36.09,20L851,220.54a26.94,26.94,0,0,0-23.58-13.15c-16,0-27.75,12.19-27.75,28.87,0,16.52,11.71,28.71,27.75,28.71C837.64,265,846.14,260,851,252Z"/><path class="cls-1" d="M936.12,252.46c0,14.44-10.27,26.47-31.92,26.47-16,0-29.52-6.42-32.72-18.61l14.27-4.81c1.28,4.17,5.62,9.94,18.77,9.94,10.59,0,16.52-4.33,16.52-11.54,0-9.47-13.63-9.47-24.86-12-15.24-3.37-21.82-10.75-21.82-22.78,0-14.92,12.35-25.51,30-25.51,13.15,0,24.86,6.74,27.75,18.77l-13.64,3.69c-1.44-4.49-6.25-9.3-15.4-9.3-8,0-14,4.49-14,11.23,0,9.14,11.23,9.78,20.53,11.7C929.54,233.86,936.12,240.27,936.12,252.46Z"/></svg>