<svg id="Layer_1" data-name="Layer 1" xmlns="http://www.w3.org/2000/svg" viewBox="0 0 1025.27 300"><path d="M259.8,0H188.18L153.5,101.9A52,52,0,1,1,188,199.82L259.8,300l86.6-150ZM121.24,150a51.64,51.64,0,0,1,6.91-25.9L172,0H86.6L0,150,86.6,300l71.83-100.18A52,52,0,0,1,121.24,150Z"/><path d="M517.4,61.82c0,35-25.27,62-60.62,62-35.52,0-60.79-27-60.79-62S421.26,0,456.78,0C492.13,0,517.4,26.81,517.4,61.82Zm-17.24,0c0-23.23-15.54-45.94-43.38-45.94S413.4,38.59,413.4,61.82s15.54,45.94,43.38,45.94S500.16,85,500.16,61.82Z"/><path d="M626.36,78.38c0,22.72-16.06,45.43-43,45.43-15,0-25.1-6.15-31.59-14.35v45.09H536.19V35h15.54V47.13c6.49-8,16.57-14.17,31.59-14.17C610.3,33,626.36,55.67,626.36,78.38Zm-15.88,0c0-17.41-10.93-30.73-28.69-30.73-19.13,0-30.06,13.66-30.06,30.73S562.66,109,581.79,109C599.55,109,610.48,95.8,610.48,78.38Z"/><path d="M723.7,85H654.88c2.39,14.18,13,23.91,29.88,23.91,9.39,0,17.93-3.58,22.71-9.73l12.81,8.2c-7.68,10.41-20.32,16.39-35.52,16.39-28.69,0-46.45-20.49-46.45-45.43S656.76,33,682.2,33C705.77,33,727.8,52.77,723.7,85ZM708,71.72c-2-14.68-11.1-24.07-25.79-24.07-14.86,0-24.93,9.73-27.32,24.07Z"/><path d="M816.77,67.45v54.14H801.23V71.89c0-12.12-5.12-24.24-21.35-24.24-16.39,0-23,14.17-23,24.24v49.7H741.29V35h15.54V47.13C762,39.45,770.49,33,783.64,33,803.11,33,816.77,49.18,816.77,67.45Z"/><path d="M443.8,209.15v17.59c-25.61-3.07-28.86,16.39-28.86,32.27v38.77H399.4V211.2h15.54v15C420.75,214.61,432.7,209.15,443.8,209.15Z"/><path d="M543.19,254.57c0,24.94-19.3,45.43-45.42,45.43s-45.43-20.49-45.43-45.43,19.3-45.42,45.43-45.42S543.19,229.64,543.19,254.57Zm-15.88,0c0-17.75-12.47-30.73-29.54-30.73s-29.38,13-29.38,30.73c0,17.59,12.3,30.57,29.38,30.57S527.31,272.16,527.31,254.57Z"/><path d="M650.44,254.57c0,22.72-16.23,45.43-43.21,45.43-15,0-24.93-6.15-31.42-14.35v12.13H560.27V178.24h15.54v45.08c6.49-8,16.39-14.17,31.42-14.17C634.21,209.15,650.44,231.86,650.44,254.57Zm-16.06,0c0-17.41-10.76-30.73-28.69-30.73-19,0-29.88,13.66-29.88,30.73s10.93,30.57,29.88,30.57C623.62,285.14,634.38,272,634.38,254.57Z"/><path d="M753.24,254.57c0,24.94-19.3,45.43-45.43,45.43s-45.42-20.49-45.42-45.43,19.3-45.42,45.42-45.42S753.24,229.64,753.24,254.57Zm-15.88,0c0-17.75-12.47-30.73-29.55-30.73s-29.37,13-29.37,30.73c0,17.59,12.3,30.57,29.37,30.57S737.36,272.16,737.36,254.57Z"/><path d="M791.66,226.06V264c0,12.29.17,20.49,13.67,20.49,2.56,0,4.44-.17,6.31-.34v13.66a37.23,37.23,0,0,1-8.36.85c-18.79,0-27.16-10.07-27.16-29V226.06H762.63V211.2h13.49V193.1h15.54v18.1h20v14.86Z"/><path d="M830.26,187A8.88,8.88,0,1,1,848,187a8.88,8.88,0,1,1-17.76,0Zm1,24.25H847v86.58H831.28Z"/><path d="M934.6,271.31l13.32,7.17A44.35,44.35,0,0,1,909.49,300c-26.12,0-45.42-20.49-45.42-45.43s19.3-45.42,45.42-45.42a44.58,44.58,0,0,1,38.43,21.35l-13.32,7.34a28.71,28.71,0,0,0-25.11-14c-17.07,0-29.54,13-29.54,30.73,0,17.59,12.47,30.57,29.54,30.57C920.42,285.14,929.47,279.85,934.6,271.31Z"/><path d="M1025.27,271.82c0,15.37-10.92,28.18-34,28.18-17.08,0-31.42-6.83-34.84-19.81l15.2-5.12c1.37,4.44,6,10.58,20,10.58,11.27,0,17.59-4.61,17.59-12.29,0-10.08-14.51-10.08-26.47-12.81-16.22-3.58-23.22-11.44-23.22-24.25,0-15.88,13.15-27.15,31.93-27.15,14,0,26.47,7.17,29.55,20l-14.52,3.93c-1.54-4.78-6.66-9.91-16.39-9.91-8.54,0-14.86,4.78-14.86,12,0,9.73,12,10.41,21.86,12.46C1018.27,252,1025.27,258.84,1025.27,271.82Z"/></svg>